{"title":"Skins Uk Season 2 1080p X265 10 Bit Ac3 2.0","uid":15482205,"size":9792291186,"categoryP":"video","categoryS":"hd___tv_shows","magnet":"?xt=urn:btih:986a11f8ef8ae39c63898113ec3280efdcde776e&amp;dn=Skins+Uk+Season+2+1080p+X265+10+Bit+Ac3+2.0&amp;tr=udp%3A%2F%2Ftracker.leechers-paradise.org%3A6969&amp;tr=udp%3A%2F%2Fzer0day.ch%3A1337&amp;tr=udp%3A%2F%2Fopen.demonii.com%3A1337&amp;tr=udp%3A%2F%2Ftracker.coppersurfer.tk%3A6969&amp;tr=udp%3A%2F%2Fexodus.desync.com%3A6969","seeders":2,"leechers":4,"uploader":"ChiosGR","files":10,"time":1470268370,"description":"General\r\nUnique ID                                : 324543526402000519991297401141180752161 (0xF428CF40566E7FFCD062C3C8425BE121)\r\nComplete name                            : /Volumes/LaCie Rugged Thunderbolt/Skins UK/S02/S02E01 Tony And Maxxie.mkv\r\nFormat                                   : Matroska\r\nFormat version                           : Version 4 / Version 2\r\nFile size                                : 994 MiB\r\nDuration                                 : 47mn 21s\r\nOverall bit rate                         : 2 935 Kbps\r\nEncoded date                             : UTC 2016-08-03 19:59:39 / UTC 2016-08-02T01:45:14Z\r\nWriting application                      : mkvmerge v9.3.1 ('Mask Machine') 64bit\r\nWriting library                          : libebml v1.3.4 + libmatroska v1.4.5 / Lavf56.1.0\r\n\r\nVideo\r\nID                                       : 1\r\nFormat                                   : HEVC\r\nFormat/Info                              : High Efficiency Video Coding\r\nFormat profile                           : Main   @Main\r\nCodec ID                                 : V_MPEGH/ISO/HEVC\r\nDuration                                 : 47mn 21s\r\nBit rate                                 : 2 653 Kbps\r\nWidth                                    : 1 920 pixels\r\nHeight                                   : 1 080 pixels\r\nDisplay aspect ratio                     : 16:9\r\nFrame rate mode                          : Constant\r\nFrame rate                               : 25.000 fps\r\nColor space                              : YUV\r\nChroma subsampling                       : 4:2:0\r\nBit depth                                : 10 bits\r\nBits/(Pixel*Frame)                       : 0.051\r\nStream size                              : 899 MiB (90%)\r\nWriting library                          : x265 1.9:[Mac OS X][clang 7.0.2][64 bit] 10bit\r\nEncoding settings                        : wpp / ctu=64 / min-cu-size=8 / max-tu-size=32 / tu-intra-depth=1 / tu-inter-depth=1 / me=1 / subme=2 / merange=57 / no-rect / no-amp / max-merge=2 / temporal-mvp / no-early-skip / rdpenalty=0 / no-tskip / no-tskip-fast / strong-intra-smoothing / no-lossless / no-cu-lossless / no-constrained-intra / no-fast-intra / open-gop / no-temporal-layers / interlace=0 / keyint=250 / min-keyint=25 / scenecut=40 / rc-lookahead=20 / lookahead-slices=6 / bframes=4 / bframe-bias=0 / b-adapt=2 / ref=3 / limit-refs=3 / no-limit-modes / weightp / no-weightb / aq-mode=1 / qg-size=32 / aq-strength=1.00 / cbqpoffs=0 / crqpoffs=0 / rd=3 / psy-rd=2.00 / rdoq-level=0 / psy-rdoq=0.00 / signhide / deblock / sao / no-sao-non-deblock / b-pyramid / cutree / no-intra-refresh / rc=crf / crf=20.0 / qcomp=0.60 / qpmin=0 / qpmax=51 / qpstep=4 / ipratio=1.40 / pbratio=1.30\r\nDefault                                  : Yes\r\nForced                                   : No\r\nColor range                              : Limited\r\nColor primaries                          : BT.709\r\nTransfer characteristics                 : BT.709\r\nMatrix coefficients                      : BT.709\r\nStatistics Tags Issue                    : mkvmerge v9.3.1 ('Mask Machine') 64bit 2016-08-03 19:59:39 / mkvmerge v9.3.1 ('Mask Machine') 64bit 2016-08-03 19:59:39 / UTC 2016-08-02T01:45:14Z\r\nFromStats_BitRate                        : 2709162\r\nFromStats_Duration                       : 00:47:21.640000000\r\nFromStats_FrameCount                     : 71041\r\nFromStats_StreamSize                     : 962308008\r\n\r\nAudio\r\nID                                       : 2\r\nFormat                                   : AC-3\r\nFormat/Info                              : Audio Coding 3\r\nMode extension                           : CM (complete main)\r\nFormat settings, Endianness              : Big\r\nCodec ID                                 : A_AC3\r\nDuration                                 : 47mn 21s\r\nBit rate mode                            : Constant\r\nBit rate                                 : 224 Kbps\r\nChannel(s)                               : 2 channels\r\nChannel positions                        : Front: L R\r\nSampling rate                            : 48.0 KHz\r\nFrame rate                               : 31.250 fps (1536 spf)\r\nCompression mode                         : Lossy\r\nDelay relative to video                  : -5ms\r\nStream size                              : 75.9 MiB (8%)\r\nLanguage                                 : English\r\nDefault                                  : Yes\r\nForced                                   : No\r\nStatistics Tags Issue                    : mkvmerge v9.3.1 ('Mask Machine') 64bit 2016-08-03 19:59:39 / mkvmerge v9.3.1 ('Mask Machine') 64bit 2016-08-03 19:59:39 / UTC 2016-08-02T01:45:14Z\r\nFromStats_BitRate                        : 224000\r\nFromStats_Duration                       : 00:47:21.695000000\r\nFromStats_FrameCount                     : 88803\r\nFromStats_StreamSize                     : 79567488\r\n\r\nText\r\nID                                       : 3\r\nFormat                                   : UTF-8\r\nCodec ID                                 : S_TEXT/UTF8\r\nCodec ID/Info                            : UTF-8 Plain Text\r\nLanguage                                 : English\r\nDefault                                  : Yes\r\nForced                                   : No\r\nStatistics Tags Issue                    : mkvmerge v9.3.1 ('Mask Machine') 64bit 2016-08-03 19:59:39 / mkvmerge v9.3.1 ('Mask Machine') 64bit 2016-08-03 19:59:39 / UTC 2016-08-02T01:45:14Z\r\nFromStats_BitRate                        : 57\r\nFromStats_Duration                       : 00:45:28.759000000\r\nFromStats_FrameCount                     : 604\r\nFromStats_StreamSize","torrent":{"xt":"urn:btih:986a11f8ef8ae39c63898113ec3280efdcde776e","amp;dn":"Skins+Uk+Season+2+1080p+X265+10+Bit+Ac3+2.0","amp;tr":["udp%3A%2F%2Ftracker.leechers-paradise.org%3A6969","udp%3A%2F%2Fzer0day.ch%3A1337","udp%3A%2F%2Fopen.demonii.com%3A1337","udp%3A%2F%2Ftracker.coppersurfer.tk%3A6969","udp%3A%2F%2Fexodus.desync.com%3A6969"],"infoHash":"986a11f8ef8ae39c63898113ec3280efdcde776e","infoHashBuffer":{"type":"Buffer","data":[152,106,17,248,239,138,227,156,99,137,129,19,236,50,128,239,220,222,119,110]},"announce":[],"urlList":[]}}